<svg  viewBox="0 0 70 70" fill="none" xmlns="http://www.w3.org/2000/svg">
<path d="M35 0C54.3305 0 70 15.6695 70 35C70 54.3305 54.3305 69.9999 35 69.9999C28.8147 70.0106 22.7381 68.3737 17.395 65.2575L0.0140541 69.9999L4.74605 52.612C1.62741 47.2672 -0.0107857 41.188 5.34404e-05 35C5.34404e-05 15.6695 15.6695 0 35 0ZM23.072 18.55L22.372 18.578C21.9195 18.6092 21.4773 18.728 21.07 18.928C20.6906 19.1433 20.344 19.412 20.041 19.726C19.621 20.1215 19.383 20.4645 19.1275 20.797C17.833 22.4801 17.1359 24.5466 17.1465 26.67C17.1535 28.385 17.6015 30.0545 18.3015 31.6155C19.733 34.7725 22.0885 38.115 25.1965 41.2125C25.9455 41.958 26.6805 42.707 27.4715 43.4035C31.3335 46.8034 35.9355 49.2554 40.9115 50.5645L42.8995 50.869C43.547 50.904 44.1945 50.855 44.8455 50.8235C45.8647 50.7697 46.8597 50.4938 47.761 50.015C48.219 49.7782 48.6662 49.5212 49.1015 49.245C49.1015 49.245 49.2497 49.1446 49.539 48.93C50.0115 48.58 50.302 48.3315 50.694 47.922C50.988 47.6186 51.233 47.2663 51.429 46.865C51.702 46.2945 51.975 45.206 52.087 44.2995C52.171 43.6065 52.1465 43.2285 52.136 42.994C52.122 42.6195 51.8105 42.231 51.471 42.0665L49.434 41.153C49.434 41.153 46.389 39.8265 44.527 38.9795C44.3321 38.8946 44.1234 38.846 43.911 38.836C43.6715 38.8109 43.4294 38.8376 43.2012 38.9143C42.9729 38.991 42.7638 39.1159 42.588 39.2805C42.5705 39.2735 42.336 39.473 39.8055 42.539C39.6603 42.7341 39.4602 42.8816 39.2308 42.9627C39.0014 43.0437 38.7531 43.0546 38.5175 42.994C38.2894 42.9332 38.066 42.856 37.849 42.763C37.415 42.581 37.2645 42.511 36.967 42.385C34.9576 41.5096 33.0976 40.3251 31.4545 38.8745C31.0135 38.4895 30.604 38.0695 30.184 37.6635C28.8072 36.3447 27.6072 34.8529 26.614 33.2255L26.4075 32.893C26.2615 32.6683 26.1417 32.4275 26.0505 32.1755C25.9175 31.661 26.264 31.248 26.264 31.248C26.264 31.248 27.1145 30.317 27.51 29.813C27.895 29.323 28.2205 28.847 28.4305 28.5075C28.8435 27.8425 28.973 27.16 28.756 26.6315C27.776 24.2375 26.7634 21.8563 25.718 19.488C25.5115 19.019 24.899 18.683 24.3425 18.6165C24.1535 18.5932 23.9645 18.5745 23.7755 18.5605C23.3056 18.5335 22.8344 18.5382 22.365 18.5745L23.072 18.55Z" fill="#92E3F2"/>
</svg>
