<svg viewBox="0 0 68 75" fill="none" xmlns="http://www.w3.org/2000/svg">
<path fill-rule="evenodd" clip-rule="evenodd" d="M51.282 1.93233C39.8999 -0.644109 28.0965 -0.644109 16.7143 1.93233L15.4879 2.20709C12.2854 2.93001 9.34385 4.53879 6.99076 6.85434C4.63767 9.16989 2.96539 12.1013 2.1601 15.3223C-0.720034 26.8354 -0.720034 38.8941 2.1601 50.4073C2.92817 53.479 4.48551 56.2902 6.67389 58.5551C8.86227 60.8201 11.6037 62.458 14.6197 63.3027L16.3019 73.4724C16.3556 73.7954 16.4938 74.0978 16.7022 74.3483C16.9105 74.5988 17.1813 74.7881 17.4865 74.8966C17.7916 75.0051 18.1199 75.0287 18.4371 74.9651C18.7543 74.9015 19.0489 74.7529 19.2902 74.5348L29.1703 65.585C36.587 66.0384 44.0298 65.4378 51.282 63.8009L52.5121 63.5261C55.7146 62.8032 58.6562 61.1944 61.0092 58.8789C63.3623 56.5633 65.0346 53.6319 65.8399 50.4109C68.72 38.8978 68.72 26.8391 65.8399 15.3259C65.0343 12.1045 63.3615 9.17276 61.0077 6.85717C58.654 4.54158 55.7116 2.93307 52.5085 2.21075L51.282 1.93233ZM19.7677 15.0255C19.0954 14.9258 18.4095 15.0629 17.825 15.4139H17.7744C16.4177 16.2198 15.1949 17.2346 14.153 18.4289C13.2847 19.4437 12.8144 20.4694 12.6914 21.4586C12.619 22.0447 12.6697 22.6382 12.8397 23.1987L12.9048 23.2354C13.8816 26.1405 15.1551 28.9357 16.7107 31.5661C18.7175 35.2601 21.1858 38.6769 24.0548 41.7322L24.1416 41.8567L24.2791 41.9593L24.3623 42.0582L24.4636 42.1462C27.4916 45.0598 30.8736 47.5712 34.5282 49.6196C38.7067 51.9239 41.2428 53.012 42.7658 53.4663V53.4882C43.2108 53.6275 43.616 53.6897 44.0248 53.6897C45.3226 53.5955 46.5512 53.0612 47.5123 52.173C48.6881 51.118 49.683 49.8761 50.4572 48.4949V48.4693C51.1844 47.0772 50.9384 45.7657 49.8892 44.8754C47.7836 43.0086 45.5047 41.3524 43.0842 39.9298C41.4634 39.0395 39.8174 39.5781 39.1517 40.4793L37.7299 42.2964C36.9991 43.1976 35.675 43.073 35.675 43.073L35.6388 43.095C25.7587 40.5416 23.1214 30.4121 23.1214 30.4121C23.1214 30.4121 22.9984 29.0346 23.9137 28.3312L25.6936 26.8805C26.5474 26.1771 27.1407 24.5139 26.2254 22.8727C24.8238 20.4234 23.1919 18.1169 21.3523 15.9854C20.9499 15.4849 20.3864 15.1438 19.7605 15.0219M36.4601 10.6221C35.9803 10.6221 35.5202 10.815 35.181 11.1586C34.8418 11.5021 34.6512 11.968 34.6512 12.4538C34.6512 12.9396 34.8418 13.4055 35.181 13.749C35.5202 14.0925 35.9803 14.2855 36.4601 14.2855C41.0365 14.2855 44.8352 15.7985 47.8415 18.7C49.3863 20.2863 50.591 22.1656 51.3797 24.2245C52.172 26.287 52.5338 28.4888 52.4397 30.6942C52.4297 30.9347 52.4667 31.1749 52.5483 31.401C52.63 31.6271 52.7549 31.8347 52.9158 32.0119C53.2408 32.3699 53.6929 32.5824 54.1726 32.6028C54.6524 32.6232 55.1205 32.4498 55.4739 32.1207C55.8274 31.7916 56.0373 31.3338 56.0575 30.848C56.1654 28.1355 55.7209 25.4294 54.7515 22.8983C53.7776 20.3544 52.2946 18.0419 50.3957 16.1063L50.3595 16.0696C46.6296 12.4611 41.9084 10.6221 36.4601 10.6221ZM36.3371 16.6448C35.8573 16.6448 35.3972 16.8378 35.058 17.1813C34.7188 17.5248 34.5282 17.9907 34.5282 18.4765C34.5282 18.9623 34.7188 19.4282 35.058 19.7718C35.3972 20.1153 35.8573 20.3083 36.3371 20.3083H36.3986C39.698 20.5464 42.1002 21.6601 43.7824 23.4881C45.5081 25.3712 46.4017 27.7121 46.3329 30.6062C46.3219 31.0921 46.5019 31.5624 46.8333 31.9138C47.1648 32.2652 47.6205 32.4689 48.1002 32.4801C48.58 32.4913 49.0444 32.309 49.3915 31.9734C49.7385 31.6378 49.9397 31.1763 49.9507 30.6905C50.0375 26.8915 48.8292 23.6127 46.4342 20.997V20.9897C43.985 18.33 40.6241 16.9232 36.5795 16.6485L36.518 16.6411L36.3371 16.6448ZM36.2683 22.7811C36.0263 22.7595 35.7824 22.7875 35.5512 22.8634C35.32 22.9393 35.1064 23.0616 34.9229 23.223C34.7395 23.3845 34.59 23.5816 34.4835 23.8028C34.377 24.024 34.3156 24.2647 34.3029 24.5104C34.2903 24.7562 34.3267 25.002 34.4099 25.2332C34.4932 25.4644 34.6215 25.6762 34.7874 25.8561C34.9533 26.0359 35.1533 26.1801 35.3754 26.2799C35.5975 26.3798 35.8372 26.4333 36.0802 26.4372C37.5924 26.5178 38.5584 26.9794 39.1662 27.5985C39.7776 28.2213 40.2334 29.2215 40.3166 30.7858C40.3211 31.0316 40.3745 31.274 40.4734 31.4985C40.5724 31.723 40.715 31.925 40.8927 32.0925C41.0705 32.26 41.2797 32.3896 41.5079 32.4735C41.7361 32.5574 41.9787 32.5939 42.2211 32.5809C42.4636 32.5678 42.7009 32.5055 42.9191 32.3976C43.1372 32.2897 43.3317 32.1384 43.4909 31.9528C43.6501 31.7671 43.7708 31.551 43.8457 31.3171C43.9207 31.0833 43.9484 30.8365 43.9271 30.5916C43.8114 28.3935 43.1312 26.4519 41.7384 25.0231C40.3383 23.5944 38.4318 22.8983 36.2683 22.7811Z" fill="#92E3F2"/>
</svg>

